<svg width="640" height="597" viewBox="0 0 640 597" fill="none" xmlns="http://www.w3.org/2000/svg">
<g clip-path="url(#clip0)">
<path d="M508.929 375.091V557.687L539.43 607.464L541.751 611.25H662.099L664.531 375.091H508.929Z" fill="#1A202E"/>
<path opacity="0.1" d="M508.929 375.091V557.687L539.43 607.464L541.302 375.091H508.929Z" fill="black"/>
<path d="M218.392 370.221V552.818L187.891 602.595L185.57 606.38H65.2222L62.7905 370.221H218.392Z" fill="#1A202E"/>
<path opacity="0.1" d="M218.392 370.221V552.818L187.891 602.595L186.02 370.221H218.392Z" fill="black"/>
<path d="M701 366.57V377.525H46.9871V361.7L107.769 330.05H647.512L701 366.57Z" fill="#1A202E"/>
<path opacity="0.1" d="M701 366.57V377.525H46.9871V361.7L701 366.57Z" fill="black"/>
<path d="M140.592 421.348H111.416L99.2595 412.827H153.963L140.592 421.348Z" fill="#62B0FF"/>
<path d="M140.592 456.651H111.416L99.2595 448.129H153.963L140.592 456.651Z" fill="#62B0FF"/>
<path d="M140.592 506.561H111.416L99.2595 498.039H153.963L140.592 506.561Z" fill="#62B0FF"/>
<path d="M140.592 556.47H111.416L99.2595 547.949H153.963L140.592 556.47Z" fill="#62B0FF"/>
<path d="M586.73 426.217H615.906L628.062 417.696H573.358L586.73 426.217Z" fill="#62B0FF"/>
<path d="M586.73 461.52H615.906L628.062 452.999H573.358L586.73 461.52Z" fill="#62B0FF"/>
<path d="M586.73 511.43H615.906L628.062 502.909H573.358L586.73 511.43Z" fill="#62B0FF"/>
<path d="M586.73 561.339H615.906L628.062 552.818H573.358L586.73 561.339Z" fill="#62B0FF"/>
<path d="M606.598 118.895H360.982C359.762 118.894 358.554 119.135 357.427 119.602C356.3 120.07 355.276 120.755 354.414 121.619C353.551 122.482 352.867 123.508 352.4 124.636C351.933 125.765 351.693 126.975 351.693 128.196V293.878C351.693 295.099 351.933 296.309 352.4 297.437C352.867 298.566 353.551 299.591 354.414 300.455C355.276 301.319 356.3 302.004 357.427 302.472C358.554 302.939 359.762 303.179 360.982 303.179H454.22L450.727 325.512C450.727 325.512 430.764 336.132 444.801 336.444C458.837 336.757 524.963 336.444 524.963 336.444C524.963 336.444 537.752 336.444 517.477 325.2L514.191 303.179H606.598C607.818 303.179 609.026 302.939 610.153 302.472C611.28 302.004 612.304 301.319 613.167 300.455C614.029 299.592 614.713 298.566 615.18 297.437C615.647 296.309 615.887 295.099 615.887 293.878V128.196C615.887 126.975 615.647 125.765 615.18 124.636C614.713 123.508 614.029 122.482 613.167 121.619C612.304 120.755 611.28 120.07 610.153 119.602C609.026 119.135 607.818 118.894 606.598 118.895Z" fill="#3F3D56"/>
<path d="M606.997 128.733H360.583V266.791H606.997V128.733Z" fill="#4C5362"/>
<path d="M483.79 125.922C484.651 125.922 485.35 125.223 485.35 124.361C485.35 123.498 484.651 122.799 483.79 122.799C482.929 122.799 482.23 123.498 482.23 124.361C482.23 125.223 482.929 125.922 483.79 125.922Z" fill="#4C5362"/>
<path d="M483.79 296.464C487.063 296.464 489.716 293.807 489.716 290.529C489.716 287.252 487.063 284.595 483.79 284.595C480.517 284.595 477.864 287.252 477.864 290.529C477.864 293.807 480.517 296.464 483.79 296.464Z" fill="#4C5362"/>
<path d="M474.555 353.311V356.435H306.744V353.936L306.975 353.311L311.11 342.067H471.124L474.555 353.311Z" fill="#3F3D56"/>
<path d="M539.134 350.253C538.829 351.562 537.674 352.942 535.067 354.248C525.709 358.933 506.682 352.999 506.682 352.999C506.682 352.999 492.022 350.5 492.022 343.941C492.434 343.658 492.863 343.403 493.307 343.175C497.241 341.091 510.286 335.948 533.415 343.393C535.119 343.929 536.641 344.928 537.811 346.278C538.33 346.789 538.72 347.415 538.95 348.106C539.18 348.797 539.243 349.533 539.134 350.253Z" fill="#3F3D56"/>
<path opacity="0.1" d="M539.134 350.253C527.681 354.648 517.472 354.976 506.994 347.689C503.032 344.756 498.235 343.174 493.307 343.175C497.242 341.091 510.286 335.948 533.415 343.393C535.119 343.929 536.641 344.928 537.811 346.278C538.33 346.789 538.72 347.415 538.95 348.106C539.18 348.797 539.243 349.533 539.134 350.253Z" fill="black"/>
<path d="M524.773 347.689C527.013 347.689 528.828 347.129 528.828 346.439C528.828 345.749 527.013 345.19 524.773 345.19C522.534 345.19 520.719 345.749 520.719 346.439C520.719 347.129 522.534 347.689 524.773 347.689Z" fill="#4C5362"/>
<path opacity="0.1" d="M474.555 353.311V356.435H306.744V353.936L306.975 353.311H474.555Z" fill="black"/>
<path d="M93.3054 0.000152653C91.6022 -0.139872 89.8969 0.241622 88.4152 1.09408C86.9603 2.09178 86.0433 3.83963 85.1074 5.46612C81.5287 11.7591 76.6839 17.2392 70.8799 21.5594C66.6524 24.6606 61.2777 28.5275 62.001 34.2454C62.3826 36.1337 63.0792 37.9441 64.0616 39.6006C67.9615 47.484 78.6038 53.5763 77.5571 62.5719C81.4317 56.0763 76.2491 52.8644 80.1238 46.3689C81.969 43.2755 85.1745 39.7837 87.9604 41.7263C88.8932 42.3768 89.5057 43.5434 90.477 44.1142C92.7945 45.476 95.2601 42.8725 97.3115 41.0284C104.386 34.6693 114.446 36.3352 123.248 38.3165C127.404 39.2519 131.969 40.4791 134.426 44.4566C137.656 49.6861 131.357 55.3341 129.765 61.2465C129.635 61.7503 129.629 62.2781 129.747 62.7848C129.866 63.2915 130.105 63.762 130.444 64.1561C130.783 64.5501 131.213 64.856 131.696 65.0476C132.179 65.2391 132.701 65.3106 133.218 65.256C135.859 64.9951 138.988 64.7812 139.145 63.6206C142.468 63.739 146.54 63.3621 147.964 59.897C148.399 58.5259 148.629 57.0979 148.646 55.6594C149.169 49.8387 151.636 44.5285 153.27 38.9885C154.905 33.4485 155.615 26.956 152.857 22.0443C151.873 20.41 150.656 18.9285 149.244 17.6465C133.592 2.47895 113.014 -0.0223616 93.3054 0.000152653Z" fill="#2F2E41"/>
<path d="M80.9611 73.934C80.9611 73.934 84.365 102.339 71.8839 104.612C59.4028 106.884 83.2303 145.515 83.2303 145.515L139.963 152.333L126.347 106.884C126.347 106.884 117.27 103.476 122.943 80.7513C128.616 58.0271 80.9611 73.934 80.9611 73.934Z" fill="#FFB8B8"/>
<path d="M46.3542 561.937L50.8933 624.429H74.72L67.9129 561.937H46.3542Z" fill="#FFB8B8"/>
<path d="M221.09 443.771L224.493 496.036L250.591 484.674L240.379 441.499L221.09 443.771Z" fill="#FFB8B8"/>
<path d="M29.3347 323.332C29.3347 323.332 30.4693 389.233 37.2773 410.821C44.0852 432.409 42.9505 433.545 41.8159 436.954C40.6812 440.362 39.5466 438.09 39.5466 443.771C39.5466 449.452 37.2773 539.213 39.5466 547.166C41.8159 555.12 32.7387 568.754 39.5466 569.89C46.3544 571.026 78.1245 569.89 79.2592 563.073C80.3938 556.256 70.182 553.983 74.7206 549.439C79.2592 544.894 86.0671 451.724 86.0671 451.724L101.952 386.96L131.453 352.874H193.858L213.147 427.864C213.147 427.864 205.205 449.452 210.878 449.452C216.551 449.452 250.591 456.269 250.591 431.272C250.591 406.276 239.244 332.422 236.975 330.15C234.706 327.877 238.11 319.924 234.706 316.515C231.302 313.107 191.589 289.246 176.839 284.701C162.088 280.156 141.396 274.747 141.396 274.747L29.3347 323.332Z" fill="#2F2E41"/>
<path d="M250.591 475.585C250.591 475.585 233.571 469.904 225.628 486.947C217.686 503.99 221.09 508.535 221.09 508.535C221.09 508.535 247.187 517.625 251.725 513.08C253.7 511.102 259.97 510.415 266.424 510.27C276.254 510.049 278.87 496.123 269.586 492.88C269.309 492.783 269.029 492.699 268.745 492.628C259.668 490.356 250.591 475.585 250.591 475.585Z" fill="#2F2E41"/>
<path d="M106.491 92.6815C125.29 92.6815 140.53 77.4205 140.53 58.5952C140.53 39.7698 125.29 24.5088 106.491 24.5088C87.6911 24.5088 72.4512 39.7698 72.4512 58.5952C72.4512 77.4205 87.6911 92.6815 106.491 92.6815Z" fill="#FFB8B8"/>
<path d="M62.2394 118.814C62.2394 118.814 117.837 130.176 131.453 111.997C145.069 93.8177 150.742 163.127 150.742 163.127L157.55 235.844L147.338 275.612C147.338 275.612 94.0095 318.788 76.9899 322.196C59.9702 325.605 33.8733 327.877 33.8733 327.877C33.8733 327.877 41.8159 201.758 41.8159 199.485C41.8159 197.213 62.2394 118.814 62.2394 118.814Z" fill="#62B0FF"/>
<path d="M79.1479 97.5051C79.1479 97.5051 66.7779 90.4091 63.374 97.2264C59.97 104.044 28.1999 121.087 24.796 121.087C21.3921 121.087 31.6039 215.392 27.0653 226.754C22.5267 238.117 0.968443 321.06 13.4496 327.877C25.9307 334.695 16.8535 321.06 29.3346 338.103C41.8157 355.146 103.087 355.146 106.491 348.329C109.894 341.512 79.259 290.382 84.9322 242.661C90.6055 194.941 99.6827 129.04 91.7401 119.951C83.7976 110.861 79.1479 97.5051 79.1479 97.5051Z" fill="#2F2E41"/>
<path d="M120.106 105.18L121.687 99.7334C121.687 99.7334 168.896 115.406 171.166 125.632C173.435 135.858 172.3 207.439 164.358 213.12C156.415 218.801 145.069 227.891 153.011 241.525C160.954 255.16 170.031 269.931 176.839 271.067C183.647 272.203 196.128 280.156 192.724 288.11C189.32 296.063 148.473 281.293 148.473 281.293C148.473 281.293 121.241 260.841 122.376 229.027C123.51 197.213 120.106 105.18 120.106 105.18Z" fill="#2F2E41"/>
<path d="M159.819 239.253L132.587 290.382C132.587 290.382 92.8748 331.286 115.568 335.831C138.261 340.376 150.742 298.336 150.742 298.336L180.243 256.296L159.819 239.253Z" fill="#FFB8B8"/>
<path d="M94.9637 8.91876C93.5917 8.81696 92.2174 9.08388 90.9829 9.69194C89.8667 10.5083 88.9467 11.564 88.2902 12.7821C85.2638 17.3407 81.3188 21.2152 76.7084 24.1567C73.2671 26.3486 68.8919 29.0817 69.4807 33.1231C69.8003 34.4781 70.3691 35.7616 71.1581 36.9081C74.3438 42.5364 75.612 49.0506 74.7708 55.465L84.2334 41.6919C85.7355 39.5055 88.3449 37.0375 90.6127 38.4106C91.3721 38.8703 91.8707 39.6949 92.6613 40.0983C94.5479 41.0608 96.555 39.2207 98.2249 37.9172C103.984 33.4227 112.173 34.6002 119.339 36.0005C122.722 36.6617 126.438 37.5291 128.437 40.3403C131.761 45.012 128.291 51.7624 130.23 57.1594C130.773 56.7787 131.234 56.2928 131.586 55.7303C131.938 55.1679 132.174 54.5405 132.279 53.8852C134.984 53.969 138.299 53.7026 139.458 51.2534C139.811 50.2936 139.998 49.2809 140.014 48.2584C140.439 44.1443 142.447 40.3911 143.778 36.4754C145.108 32.5598 145.687 27.971 143.442 24.4994C142.62 23.3231 141.629 22.2755 140.5 21.391C127.759 10.6707 111.007 8.90285 94.9637 8.91876Z" fill="#2F2E41"/>
<path d="M159.819 121.087L170.39 123.897C170.39 123.897 194.993 186.987 189.32 230.163C183.646 273.339 180.242 264.249 180.242 264.249C180.242 264.249 171.165 243.798 150.742 248.342L159.819 121.087Z" fill="#2F2E41"/>
<path d="M10.0457 261.977L57.7008 335.831C57.7008 335.831 87.2016 373.326 96.2787 356.283C105.356 339.239 64.5087 310.834 64.5087 310.834L33.8732 254.024L10.0457 261.977Z" fill="#FFB8B8"/>
<path d="M33.8732 123.359L24.7961 121.087C24.7961 121.087 6.64174 126.768 2.10316 150.628C-2.43542 174.489 0.968507 269.93 6.64174 271.067C12.315 272.203 34.6618 254.448 38.2388 258.213C41.8158 261.977 30.4693 242.661 33.8732 232.435C37.2771 222.21 33.8732 123.359 33.8732 123.359Z" fill="#2F2E41"/>
<path d="M460.467 174.076H431.141V181.146H460.467V174.076Z" fill="#62B0FF"/>
<path d="M562.022 174.076H551.704V181.146H562.022V174.076Z" fill="#62B0FF"/>
<path d="M582.659 174.076H572.341V181.146H582.659V174.076Z" fill="#62B0FF"/>
<path d="M540.843 174.076H470.786V181.146H540.843V174.076Z" fill="#62B0FF"/>
<path d="M423.538 219.758H394.212V226.827H423.538V219.758Z" fill="#62B0FF"/>
<path d="M525.093 219.758H514.775V226.827H525.093V219.758Z" fill="#62B0FF"/>
<path d="M545.73 219.758H535.412V226.827H545.73V219.758Z" fill="#62B0FF"/>
<path d="M503.913 219.758H433.856V226.827H503.913V219.758Z" fill="#62B0FF"/>
<path d="M544.644 189.847H515.318V196.917H544.644V189.847Z" fill="#62B0FF"/>
<path d="M584.289 189.847H554.962V196.917H584.289V189.847Z" fill="#62B0FF"/>
<path d="M404.53 189.847H394.212V196.917H404.53V189.847Z" fill="#62B0FF"/>
<path d="M425.167 189.847H414.849V196.917H425.167V189.847Z" fill="#62B0FF"/>
<path d="M505.543 189.847H435.486V196.917H505.543V189.847Z" fill="#62B0FF"/>
<path d="M483.819 205.074H454.493V212.144H483.819V205.074Z" fill="#62B0FF"/>
<path d="M444.175 205.074H414.849V212.144H444.175V205.074Z" fill="#62B0FF"/>
<path d="M404.53 205.074H394.212V212.144H404.53V205.074Z" fill="#62B0FF"/>
<path d="M584.289 205.074H573.97V212.144H584.289V205.074Z" fill="#62B0FF"/>
<path d="M563.652 205.074H493.595V212.144H563.652V205.074Z" fill="#62B0FF"/>
</g>
<defs>
<clipPath id="clip0">
<rect width="701" height="661" fill="white"/>
</clipPath>
</defs>
</svg>
